<?xml version="1.0" encoding="utf-8"?>
<!-- Generator: Adobe Illustrator 27.5.0, SVG Export Plug-In . SVG Version: 6.00 Build 0)  -->
<svg version="1.1" xmlns="http://www.w3.org/2000/svg" xmlns:xlink="http://www.w3.org/1999/xlink" x="0px" y="0px"
	 viewBox="0 0 1000 500" style="enable-background:new 0 0 1000 500;" xml:space="preserve">
<style type="text/css">
	.st0{fill:#061623;}
	.st1{fill:#647A8F;}
	.st2{fill:#EDD4A3;}
	.st3{fill:#CDA472;}
	.st4{fill:#F8F0DF;}
	.st5{fill:#FEFDF2;}
	.st6{fill:#E1C493;}
</style>
<g id="Background">
	<path class="st0" d="M631.43,495.76h-271.1c-44.18,0-80-35.82-80-80V111.8c0-44.18,35.82-80,80-80h271.1c44.18,0,80,35.82,80,80
		v303.96C711.43,459.94,675.61,495.76,631.43,495.76z"/>
</g>
<g id="Foreground">
	<g>
		<path class="st1" d="M584.18,164.37c45.84-6.35,83.29,39.91,104.64,107.15c2.28,7.19,3.78,14.17,4.59,20.9
			c0.17-4.34,0.25-8.88,0.25-13.64c0-60.73-35.35-127.35-94.08-127.35c-11.07,0-23.1,3.99-34.49,11.23
			C568.98,164.21,574.53,165.71,584.18,164.37z"/>
		<g>
			<path class="st1" d="M672.79,368.32c-13.81,28.39-40.53,23.29-48.79,60.8c-1.51,6.87-3.44,13.48-5.78,19.21
				c1.54-0.55,3-1.4,4.35-2.57c33.58-29.04,61.9-60.14,66.05-85c5.01-30.07,7.43-49.08,7.76-60.2
				C691.2,321.35,682.92,347.48,672.79,368.32z"/>
		</g>
		<path class="st2" d="M484.03,470.41c-3.8-3.64-6.72-7.05-8.87-10.24c-32.89-27.64-55.31-64.04-53.74-103.35
			c2.18-54.76,41.59-97.64,86.99-107.98c-2.77-0.44-5.56-0.85-8.4-1.23c-74.46-9.79-126.69,45.61-126.69,111.02
			c0,59.01,68.06,110.76,131.51,129.94C499.41,484.5,492.74,478.77,484.03,470.41z"/>
		<path class="st3" d="M446.52,360.3c6.73-67.91,10.29-83.42,42.65-102.7c6.69-3.98,13.09-6.54,19.2-7.86
			c-6.88-1.15-15.21,3.17-24.51,8.13c-26.15,13.95-62.53,48.59-62.53,102.89c0,45.31,30.6,83.49,52.76,98.35
			C457.13,434.03,442.68,399.07,446.52,360.3z"/>
		<g>
			<path class="st4" d="M497.11,423.07c13.55-64.51,54.89-83.61,66.17-166.48c-79.61-19.02-105.97-1.05-108.29,97.74
				c-1.16,49.54,18.44,83.86,44.23,102.19C495.61,446.48,494.54,435.3,497.11,423.07z"/>
		</g>
		<path class="st4" d="M572.74,176.48c-1.6,3.15-4.32,10.64,1.73,23.05c2.13,4.37,2.53,8.7,3.29,12.26
			c12.62,28.72,17.23,67.16,1.55,105.88c-31.16,76.97-93.17,80.9-77.74,132.93c1.27,4.27,2.86,7.14,3.28,9.34
			c9.45,9.06,20.03,11.84,26.52,12.44c55.51,5.14,98.01-58.53,100.89-140.06C634.57,266.61,598.57,203.53,572.74,176.48z"/>
		<path class="st5" d="M373.83,367.54c-1.4-13.35-8.58-63.62,56.35-106.91c36.3-24.2,76.83-7.86,132.25-0.15
			c3.42-18.88,5.17-38.45,4.78-57.93c-0.66-32.93-2.06-47.67-9.98-65.34c-21.51,21.24-35.69,31.46-94.38,46.89
			c-7.18,1.89-15.43,6.65-29.9,15.07c-2.14,1.77-4.19,3.4-6.14,4.84c-29.04,21.48-68.32,75.98-63.48,146.77
			c1.24,18.2,11.8,44.16,36.82,72.2C398.39,416.09,377.16,399.17,373.83,367.54z"/>
		<circle id="Right_Head" class="st1" cx="624" cy="101" r="44.75"/>
		<circle id="Center_Head" class="st5" cx="511.75" cy="88.75" r="52.75"/>
		<ellipse id="Left_Head" class="st5" cx="396.91" cy="97.49" rx="45.22" ry="44.01"/>
		<path class="st6" d="M317.35,332.92C304.48,253.7,351.72,153.33,432,158.38c15.72,0.99,20.21,2.23,34.48,1.51
			c-11.54-6.96-26.82-9.41-45.15-9.98c-67.38-2.12-116.08,72.01-117.6,155.79c-1.27,70.23,36.9,149.43,107.39,164.56
			C360.83,445.57,327.03,392.52,317.35,332.92z"/>
	</g>
</g>
</svg>
